<?xml version="1.0" encoding="UTF-8"?>
<svg version="1.1" xmlns="http://www.w3.org/2000/svg" width="600" height="600">
<path d="M0 0 C198 0 396 0 600 0 C600 198 600 396 600 600 C402 600 204 600 0 600 C0 402 0 204 0 0 Z " fill="#FEFEFE" transform="translate(0,0)"/>
<path d="M0 0 C0.98210449 0.00563965 1.96420898 0.0112793 2.97607422 0.01708984 C9.80500728 0.13171877 15.90233036 0.61831224 22.25 3.3125 C23.21679688 3.7146875 24.18359375 4.116875 25.1796875 4.53125 C40.7265036 11.65192913 52.02799342 23.38201763 58.25 39.3125 C61.28205241 48.66033307 61.65079201 57.63363021 61.54296875 67.359375 C61.53735837 68.8667966 61.53309511 70.37422375 61.53010559 71.88165283 C61.51877003 75.80749191 61.48940348 79.73298643 61.45599365 83.65869141 C61.42504604 87.68126772 61.41154805 91.7039009 61.39648438 95.7265625 C61.36452006 103.58871573 61.31184787 111.45052502 61.25 119.3125 C53.99 119.3125 46.73 119.3125 39.25 119.3125 C38.92 115.3525 38.59 111.3925 38.25 107.3125 C37.07244141 108.01826172 37.07244141 108.01826172 35.87109375 108.73828125 C25.17293762 115.0784155 15.57646484 119.73677046 2.9375 119.5625 C2.19185791 119.55283203 1.44621582 119.54316406 0.67797852 119.53320312 C-14.9579799 119.19479909 -29.17324583 113.97232354 -40.5078125 102.84765625 C-51.91101131 89.95449244 -57.92388779 76.21944766 -57.9375 59 C-57.94974609 58.19626953 -57.96199219 57.39253906 -57.97460938 56.56445312 C-58.01025015 41.79729314 -52.16990646 29.06206431 -42.0847168 18.44799805 C-35.06940739 11.4136091 -27.18034167 5.59686038 -17.75 2.3125 C-16.7290625 1.95542969 -15.708125 1.59835938 -14.65625 1.23046875 C-9.82868945 -0.11123701 -4.97862713 -0.02963973 0 0 Z " fill="#1C1D1E" transform="translate(508.75,224.6875)"/>
<path d="M0 0 C0.90234375 0.40089844 1.8046875 0.80179688 2.734375 1.21484375 C19.13555374 9.20694356 29.15644805 23.30732893 35.12890625 40.19140625 C36.22210906 44.97110465 36.25497281 49.42959909 36.1875 54.3125 C36.1865332 55.67084961 36.1865332 55.67084961 36.18554688 57.05664062 C36.14083759 63.71832483 36.14083759 63.71832483 35 66 C3.65 66 -27.7 66 -60 66 C-53.06939354 78.87112628 -48.15110567 87.71224529 -34 92 C-30.78517226 92.45595923 -27.61989572 92.59476608 -24.375 92.625 C-23.59995117 92.63587646 -22.82490234 92.64675293 -22.02636719 92.65795898 C-17.63098305 92.55090144 -14.40414181 91.84978614 -10.421875 89.9765625 C-3.49472807 86.97008649 3.73466568 87.57007914 11.125 87.75 C12.57289177 87.77010961 14.02081073 87.78835245 15.46875 87.8046875 C18.97974127 87.84829847 22.4896912 87.9170743 26 88 C17.98380138 101.5572846 5.15147778 109.66948655 -9.79296875 114.1328125 C-25.49492722 117.81628788 -41.34792116 114.89823335 -55 106.5625 C-56.68453875 105.40049173 -58.35339082 104.21515935 -60 103 C-60.64324219 102.53980469 -61.28648437 102.07960938 -61.94921875 101.60546875 C-70.56265417 94.88892473 -76.18161996 85.0666383 -80 75 C-80.3196875 74.1853125 -80.639375 73.370625 -80.96875 72.53125 C-85.75290153 58.1787954 -83.74915782 42.66756118 -77.71484375 29.11328125 C-74.19771747 22.0888257 -69.52282279 16.54240727 -64 11 C-63.45859375 10.43539062 -62.9171875 9.87078125 -62.359375 9.2890625 C-46.93912595 -5.43026614 -19.02251809 -9.30702956 0 0 Z " fill="#1B1C1D" transform="translate(349,229)"/>
<path d="M0 0 C9.52425268 7.22569443 15.95861248 15.19879628 21 26 C21.45246094 26.9178125 21.90492188 27.835625 22.37109375 28.78125 C26.72317844 39.26239514 25 47.89100682 25 60 C-6.68 60 -38.36 60 -71 60 C-64.08202937 72.68294615 -58.99651446 81.02328052 -45.25 85.75 C-36.99528562 87.98772378 -30.55363299 87.79965517 -22.6328125 84.48828125 C-14.72122689 81.57233839 -7.54515686 81.4189474 0.875 81.6875 C2.25646898 81.71267372 3.63798337 81.73547053 5.01953125 81.75585938 C8.34756023 81.8140417 11.67315122 81.89573521 15 82 C8.88035174 94.71762924 -3.30841329 102.05623349 -16.0625 107 C-30.7438553 111.52789462 -47.32976563 110.37728038 -61 103.375 C-61.69351563 103.02091064 -62.38703125 102.66682129 -63.1015625 102.30200195 C-77.73135087 94.56759722 -86.56922066 81.63129434 -91.96875 66.23828125 C-96.81042565 49.80796527 -94.36731165 33.89342694 -86.39453125 19.01171875 C-78.48409229 5.16927354 -65.31680449 -4.71710206 -50 -9 C-33.33481549 -13.32710054 -14.01176474 -9.7336629 0 0 Z " fill="#1A1B1C" transform="translate(124,235)"/>
<path d="M0 0 C10.17632316 6.17502059 17.01237471 12.91532118 20.859375 24.3828125 C22.82669021 35.43157265 21.70683084 46.44009417 15.703125 56.015625 C11.94111068 61.19807951 7.72525124 65.24100586 2.24609375 68.5546875 C1.56546875 68.96847656 0.88484375 69.38226563 0.18359375 69.80859375 C-8.8105583 74.29005493 -20.80271636 74.27637453 -30.33203125 71.51953125 C-40.49151585 66.84356334 -48.34883961 58.83973148 -52.75390625 48.5546875 C-55.49296285 39.05854189 -55.42066258 26.54450681 -51.06640625 17.6796875 C-50.01483689 15.93848427 -48.91665265 14.22370147 -47.75390625 12.5546875 C-47.35945313 11.94625 -46.965 11.3378125 -46.55859375 10.7109375 C-36.3529401 -3.27723114 -15.1270478 -7.939018 0 0 Z " fill="#FCFCFC" transform="translate(526.75390625,249.4453125)"/>
<path d="M0 0 C7.26 0 14.52 0 22 0 C22.00808685 1.6595723 22.01617371 3.31914459 22.02450562 5.02900696 C22.10187156 20.64197558 22.18946782 36.25485141 22.28752708 51.86770344 C22.33768071 59.8950999 22.38412326 67.92248601 22.421875 75.94995117 C22.45478306 82.94547381 22.49460762 89.94091674 22.54279006 96.93635148 C22.56806693 100.64148161 22.58984463 104.34655878 22.60334396 108.05175209 C22.61853143 112.18476469 22.64915811 116.3175228 22.68115234 120.45043945 C22.68331253 121.68330185 22.68547272 122.91616425 22.68769836 124.18638611 C22.69886185 125.30959259 22.71002533 126.43279907 22.7215271 127.59004211 C22.72705786 128.56806447 22.73258862 129.54608683 22.73828697 130.55374622 C22.83647849 133.25634516 22.83647849 133.25634516 25 136 C27.88595946 136.58481121 27.88595946 136.58481121 31.125 136.6875 C34.033125 136.8421875 34.033125 136.8421875 37 137 C37 144.26 37 151.52 37 159 C33.14507317 159.10833518 29.29321662 159.18748693 25.4375 159.25 C24.35146484 159.28351563 23.26542969 159.31703125 22.14648438 159.3515625 C15.50319001 159.43233204 11.33382893 159.09190107 6 155 C4.2578125 153.0703125 4.2578125 153.0703125 3.125 151.125 C2.73570312 150.48820313 2.34640625 149.85140625 1.9453125 149.1953125 C-0.019382 144.63267486 -0.12462796 139.83257506 -0.12025452 134.92556763 C-0.12162918 133.73092392 -0.12300385 132.53628021 -0.12442017 131.30543518 C-0.12082489 130.0085527 -0.11722961 128.71167023 -0.11352539 127.37548828 C-0.11324309 125.98545839 -0.1134021 124.59542836 -0.1139679 123.20539856 C-0.11425418 119.443464 -0.10838478 115.68156148 -0.10139394 111.91963434 C-0.09513224 107.98384928 -0.09455437 104.04806344 -0.09336853 100.11227417 C-0.09026351 92.664489 -0.08206131 85.21671855 -0.07201904 77.76893985 C-0.06083214 69.28770655 -0.05534096 60.80647254 -0.05032361 52.3252337 C-0.039878 34.88348038 -0.02209261 17.44174231 0 0 Z " fill="#1E1F20" transform="translate(403,185)"/>
<path d="M0 0 C16.12752379 0 30.25363906 5.60592986 41.93774414 16.74243164 C54.64398529 29.44867279 59.30021955 43.50583216 59.31469727 61.10913086 C59.05738119 77.91994051 52.79368228 90.52749404 41.37890625 102.71484375 C29.58022733 114.0485501 16.14345413 119 0 119 C0 111.74 0 104.48 0 97 C2.908125 96.690625 2.908125 96.690625 5.875 96.375 C15.93067926 94.83050024 23.30105168 90.04838989 29.5234375 82.0390625 C36.00712675 73.02515306 38.03893084 64.03315285 37 53 C35.45804249 43.63712284 30.56237788 35.53333612 23.125 29.625 C15.75826498 24.60995347 8.89332855 22.77866571 0 21 C0 14.07 0 7.14 0 0 Z " fill="#1B1C1D" transform="translate(159,225)"/>
<path d="M0 0 C0 6.93 0 13.86 0 21 C-3.3 21.66 -6.6 22.32 -10 23 C-13.38501494 24.28376494 -13.38501494 24.28376494 -16.3125 25.875 C-17.27800781 26.36742187 -18.24351562 26.85984375 -19.23828125 27.3671875 C-23.80283165 30.06588915 -27.22734249 32.85517438 -30.125 37.3125 C-30.60195312 38.03050781 -31.07890625 38.74851562 -31.5703125 39.48828125 C-35.44711605 46.29916837 -36.4795457 51.21715366 -36.375 59 C-36.38660156 59.86367188 -36.39820313 60.72734375 -36.41015625 61.6171875 C-36.38469684 67.20128537 -35.5604189 71.03452742 -33 76 C-32.64679688 76.71027344 -32.29359375 77.42054688 -31.9296875 78.15234375 C-26.78521277 86.85984356 -19.52858823 92.73678485 -10 96 C-6.7 96.33 -3.4 96.66 0 97 C0 104.26 0 111.52 0 119 C-15.87583522 119 -29.24335218 113.89112774 -41 103 C-47 96.85031185 -47 96.85031185 -47 94 C-47.66 93.67 -48.32 93.34 -49 93 C-48.61328125 92.52433594 -48.2265625 92.04867187 -47.828125 91.55859375 C-38.62446347 79.1883259 -37.63129916 63.90070346 -39 49 C-39.89011685 42.98496793 -41.70041528 37.90309107 -44.5625 32.5625 C-44.87896484 31.95212891 -45.19542969 31.34175781 -45.52148438 30.71289062 C-46.33949241 29.13766071 -47.16894343 27.56838496 -48 26 C-48.33 25.34 -48.66 24.68 -49 24 C-47.35839375 22.30367354 -45.68621289 20.6516436 -44 19 C-43.01193359 17.98292969 -43.01193359 17.98292969 -42.00390625 16.9453125 C-37.05326215 12.11989548 -32.01756147 8.63842067 -25.875 5.5625 C-24.89019653 5.06786255 -24.89019653 5.06786255 -23.88549805 4.56323242 C-15.68480253 0.64561143 -9.40864752 0 0 0 Z " fill="#50C5F1" transform="translate(256,225)"/>
<path d="M0 0 C4.90025449 3.78302475 8.19764727 7.88618763 11.125 13.3125 C11.50527344 13.99828125 11.88554687 14.6840625 12.27734375 15.390625 C13.125 17.3125 13.125 17.3125 13.125 20.3125 C-10.965 20.3125 -35.055 20.3125 -59.875 20.3125 C-56.0267004 8.76760121 -49.8136009 0.92061518 -38.875 -4.6875 C-25.3638909 -10.46542145 -11.99814446 -8.14508181 0 0 Z " fill="#F7F7F7" transform="translate(348.875,253.6875)"/>
<path d="M0 0 C4.90025449 3.78302475 8.19764727 7.88618763 11.125 13.3125 C11.50527344 13.99828125 11.88554688 14.6840625 12.27734375 15.390625 C13.125 17.3125 13.125 17.3125 13.125 20.3125 C-10.965 20.3125 -35.055 20.3125 -59.875 20.3125 C-56.0267004 8.76760121 -49.8136009 0.92061518 -38.875 -4.6875 C-25.3638909 -10.46542145 -11.99814446 -8.14508181 0 0 Z " fill="#F7F7F7" transform="translate(112.875,253.6875)"/>
<path d="M0 0 C5.9800735 2.06584357 9.70471518 5.72208531 12.8125 11.1875 C14.5193962 16.66753517 15.31627778 21.84201669 13.05078125 27.27734375 C9.72860341 32.90513397 5.45272807 37.27927251 -1 39 C-7.2607551 39.81238172 -12.06405141 39.37868142 -17.23828125 35.58984375 C-21.54598473 31.70240402 -23.68624298 28.42953442 -24.44140625 22.58203125 C-24.61251789 17.34380725 -24.56622081 13.24133023 -22.375 8.4375 C-15.13302866 1.00495047 -10.43651209 -0.75230428 0 0 Z " fill="#262728" transform="translate(390,376)"/>
<path d="M0 0 C4.93821715 3.814286 7.57280405 7.02375419 8.46875 13.26953125 C8.82337657 20.31773442 7.75160355 25.10428882 3.0625 30.4375 C-1.4573873 34.84149276 -6.08312622 36.47897452 -12.3125 36.875 C-18.3982777 36.70082791 -22.34532253 34.04855255 -26.546875 29.81640625 C-31.16649295 23.78235471 -30.8830256 16.71009413 -29.9375 9.4375 C-27.68902189 4.50814414 -24.25127648 1.58296202 -19.9375 -1.5625 C-13.20217476 -3.76524788 -6.07782242 -3.78354508 0 0 Z " fill="#262728" transform="translate(302.9375,378.5625)"/>
<path d="M0 0 C2.18298726 1.45302938 4.22799629 2.95268435 6.2265625 4.6484375 C5.8965625 5.6384375 5.5665625 6.6284375 5.2265625 7.6484375 C3.0390625 8.3359375 3.0390625 8.3359375 0.2265625 8.6484375 C-0.8871875 7.936875 -0.8871875 7.936875 -2.0234375 7.2109375 C-5.90740623 5.00413709 -9.40256192 4.76951143 -13.7734375 5.6484375 C-16.79753114 7.91971084 -16.79753114 7.91971084 -18.7734375 10.6484375 C-19.1034375 10.9784375 -19.4334375 11.3084375 -19.7734375 11.6484375 C-20.19816084 16.51642041 -20.41813253 21.10116942 -18.5234375 25.6484375 C-15.38206303 29.38089768 -15.38206303 29.38089768 -10.87890625 30.8984375 C-5.4282313 31.08441375 -5.4282313 31.08441375 -0.7734375 28.6484375 C0.04240818 25.58935337 0.04240818 25.58935337 0.2265625 22.6484375 C-3.4034375 22.6484375 -7.0334375 22.6484375 -10.7734375 22.6484375 C-10.7734375 20.6684375 -10.7734375 18.6884375 -10.7734375 16.6484375 C-4.8334375 16.6484375 1.1065625 16.6484375 7.2265625 16.6484375 C8.41069363 30.14753243 8.41069363 30.14753243 5.38671875 33.98046875 C-0.64262443 37.89525556 -6.73932561 38.73744692 -13.7734375 37.6484375 C-19.86439236 35.694735 -23.6512496 31.12243003 -26.9140625 25.78125 C-29.03436967 20.5190331 -28.83413289 14.20392071 -26.67578125 9.00390625 C-20.77999355 -0.47652038 -10.82163549 -5.27364209 0 0 Z " fill="#262728" transform="translate(447.7734375,377.3515625)"/>
<path d="M0 0 C1.98 0 3.96 0 6 0 C6 12.54 6 25.08 6 38 C-1 38 -1 38 -2.90869141 36.36694336 C-3.38483887 35.61550049 -3.86098633 34.86405762 -4.3515625 34.08984375 C-4.89296875 33.26419922 -5.434375 32.43855469 -5.9921875 31.58789062 C-6.53101563 30.71326172 -7.06984375 29.83863281 -7.625 28.9375 C-8.72094158 27.23801512 -9.81728958 25.53879224 -10.9140625 23.83984375 C-11.6248999 22.70083618 -11.6248999 22.70083618 -12.35009766 21.53881836 C-14.4621749 18.28881965 -16.74712182 15.15402945 -19 12 C-19.33 20.58 -19.66 29.16 -20 38 C-21.98 38 -23.96 38 -26 38 C-26 25.79 -26 13.58 -26 1 C-19 1 -19 1 -16.41015625 3.421875 C-15.60372842 4.5140173 -14.82212936 5.62480495 -14.0625 6.75 C-13.64500488 7.32967529 -13.22750977 7.90935059 -12.79736328 8.5065918 C-11.50360277 10.31996938 -10.24810162 12.15495898 -9 14 C-8.59475098 14.59184082 -8.18950195 15.18368164 -7.77197266 15.79345703 C-5.46699546 19.16721725 -3.22872478 22.57436747 -1 26 C-0.67 17.42 -0.34 8.84 0 0 Z " fill="#1F2020" transform="translate(249,376)"/>
<path d="M0 0 C8.58 0 17.16 0 26 0 C26 2.31 26 4.62 26 7 C19.73 7 13.46 7 7 7 C7 9.97 7 12.94 7 16 C12.94 16 18.88 16 25 16 C25 17.98 25 19.96 25 22 C19.06 22 13.12 22 7 22 C7 25.3 7 28.6 7 32 C13.27 32 19.54 32 26 32 C26 33.98 26 35.96 26 38 C17.42 38 8.84 38 0 38 C0 25.46 0 12.92 0 0 Z " fill="#2F3031" transform="translate(499,376)"/>
<path d="M0 0 C8.58 0 17.16 0 26 0 C26 1.98 26 3.96 26 6 C19.73 6 13.46 6 7 6 C7 9.3 7 12.6 7 16 C13.27 16 19.54 16 26 16 C26 17.98 26 19.96 26 22 C19.73 22 13.46 22 7 22 C7 25.3 7 28.6 7 32 C13.27 32 19.54 32 26 32 C26 33.98 26 35.96 26 38 C17.42 38 8.84 38 0 38 C0 25.46 0 12.92 0 0 Z " fill="#2A2B2C" transform="translate(77,376)"/>
<path d="M0 0 C2.98324962 1.06903585 5.28085515 2.32668009 8 4 C6.234375 7.890625 6.234375 7.890625 4.125 8.875 C2 9 2 9 0.1640625 8.015625 C-2.33781547 6.84145845 -4.00561805 6.79428288 -6.75 6.875 C-7.94882812 6.90207031 -7.94882812 6.90207031 -9.171875 6.9296875 C-10.07679688 6.96449219 -10.07679688 6.96449219 -11 7 C-11.33 8.65 -11.66 10.3 -12 12 C-8.82650057 13.70285335 -5.91454292 15.02398795 -2.4375 16 C0.86565846 16.96091882 3.18974749 18.04843576 6 20 C6.598125 20.4125 7.19625 20.825 7.8125 21.25 C9.78029425 24.14990732 9.35154015 26.60177855 9 30 C6.85448348 34.96856457 3.67378598 36.66310701 -1 39 C-8.56765002 39.80146192 -13.67583946 38.21610703 -20 34 C-19.67 32.35 -19.34 30.7 -19 29 C-15 29 -15 29 -12.75 30.5 C-8.87425433 32.61404309 -6.3923625 32.35422278 -2 32 C-1.01 31.34 -0.02 30.68 1 30 C0.505 27.525 0.505 27.525 0 25 C-0.88042969 24.75765625 -1.76085937 24.5153125 -2.66796875 24.265625 C-4.41013672 23.76289063 -4.41013672 23.76289063 -6.1875 23.25 C-7.33605469 22.92515625 -8.48460937 22.6003125 -9.66796875 22.265625 C-13.76851804 20.70808928 -16.7166178 18.69173108 -19.375 15.1875 C-20.37705848 11.68029533 -20.02637781 9.5017596 -19 6 C-14.33588152 -0.87581338 -7.71902295 -1.24401691 0 0 Z " fill="#252627" transform="translate(561,376)"/>
<path d="M0 0 C1.98 0 3.96 0 6 0 C6 4.95 6 9.9 6 15 C12.6 15 19.2 15 26 15 C26 10.05 26 5.1 26 0 C27.98 0 29.96 0 32 0 C32 12.21 32 24.42 32 37 C30.02 37 28.04 37 26 37 C26 31.72 26 26.44 26 21 C19.4 21 12.8 21 6 21 C6 26.28 6 31.56 6 37 C4.02 37 2.04 37 0 37 C0 24.79 0 12.58 0 0 Z " fill="#1D1E1E" transform="translate(171,377)"/>
<path d="M0 0 C4.0884364 2.08138581 6.32286433 3.75427818 8 8 C8.62535941 12.35776765 9.01372641 16.95235342 7.01953125 20.98046875 C4.79832683 23.74843118 2.41815868 26.02338323 -1 27 C-7.91764706 27.65882353 -7.91764706 27.65882353 -11.875 25.25 C-16.35009789 20.51166105 -16.47979763 16.27425082 -16.39453125 9.92578125 C-15.80066196 5.52174071 -14.29231178 3.9003699 -11 1 C-7.52817697 -0.73591152 -3.79591036 -0.46571673 0 0 Z " fill="#F9F9F9" transform="translate(389,382)"/>
<path d="M0 0 C4.09273155 2.08357243 6.31307138 3.75620198 8 8 C8.72436707 12.54818937 8.92271409 16.98967615 6.97265625 21.23828125 C4.31704044 24.79136279 1.89559862 26.41099413 -2.5 27.125 C-6.71114711 27.26678946 -9.51556748 26.48888037 -13 24 C-16.89613357 18.64048612 -16.9534003 13.41378382 -16 7 C-12.48230684 0.06884163 -7.15671912 -0.87805125 0 0 Z " fill="#F9F9F9" transform="translate(296,382)"/>
<path d="M0 0 C2.64982041 1.03885005 3.85499724 2.02433956 6 4 C6.928125 4.804375 6.928125 4.804375 7.875 5.625 C9 7 9 7 9 9 C6.3125 10.25 6.3125 10.25 3 11 C2.236875 10.38125 1.47375 9.7625 0.6875 9.125 C-2.66306004 6.47571997 -4.67208821 6.36438353 -8.84375 6.53125 C-12.27986832 7.27823224 -13.89797716 9.30678324 -16 12 C-16.33 12.33 -16.66 12.66 -17 13 C-17.5235733 19.00095551 -17.82856399 24.05477151 -14 29 C-14 29.66 -14 30.32 -14 31 C-10.1243508 32.29188307 -6.02955186 32.62735538 -2 32 C-0.2925002 30.71937515 1.38263741 29.3927289 3 28 C5.43138705 28.2084046 6.82850911 28.91425455 9 30 C6.91357836 34.85793694 3.82927603 37.01193499 -1 39 C-6.55578252 40.01600667 -11.41312504 39.7554705 -16.375 36.9375 C-18.2734375 35.51953125 -18.2734375 35.51953125 -20 34 C-20.79277344 33.32517578 -20.79277344 33.32517578 -21.6015625 32.63671875 C-26.09011828 27.78456487 -25.5599682 21.91106742 -25.56640625 15.62109375 C-24.70342666 10.10397598 -21.79166468 6.18541036 -17.5625 2.625 C-12.18306694 -1.21024308 -6.33763819 -0.98200383 0 0 Z " fill="#252627" transform="translate(145,376)"/>
<path d="M0 0 C1.98 0 3.96 0 6 0 C6 10.56 6 21.12 6 32 C11.61 32 17.22 32 23 32 C23 33.98 23 35.96 23 38 C15.08 38 7.16 38 -1 38 C-1.02290839 32.74888804 -1.04283563 27.49794822 -1.05493164 22.24682617 C-1.05997218 20.45905979 -1.06680454 18.67129755 -1.07543945 16.88354492 C-1.0875173 14.31948832 -1.09323094 11.75548603 -1.09765625 9.19140625 C-1.10281754 8.3872377 -1.10797882 7.58306915 -1.11329651 6.75453186 C-1.11349215 4.83598285 -1.06201983 2.91754632 -1 1 C-0.67 0.67 -0.34 0.34 0 0 Z " fill="#2E2F30" transform="translate(329,376)"/>
<path d="M0 0 C9.24 0 18.48 0 28 0 C28 1.65 28 3.3 28 5 C24.37 5 20.74 5 17 5 C17 15.56 17 26.12 17 37 C15.02 37 13.04 37 11 37 C11 26.44 11 15.88 11 5 C7.37 5 3.74 5 0 5 C0 3.35 0 1.7 0 0 Z " fill="#191A1B" transform="translate(32,377)"/>
<path d="M0 0 C2.31 0 4.62 0 7 0 C7 12.54 7 25.08 7 38 C4.69 38 2.38 38 0 38 C0 25.46 0 12.92 0 0 Z " fill="#2D2E2F" transform="translate(473,376)"/>
</svg>
